<svg width="300" height="150" viewBox="0 0 300 150" fill="none" xmlns="http://www.w3.org/2000/svg">
  <g transform="translate(0, 10)">
    <!-- Lotus flower -->
    <g transform="translate(150, 50) scale(0.8)">
      <path d="M0,0 C10,-20 30,-30 50,-20 C70,-10 70,10 60,30 C50,50 30,60 10,50 C-10,40 -10,20 0,0 Z" fill="#FFD700" />
      <path d="M0,0 C-10,-20 -30,-30 -50,-20 C-70,-10 -70,10 -60,30 C-50,50 -30,60 -10,50 C10,40 10,20 0,0 Z" fill="#FFD700" />
      <path d="M0,0 C20,-10 40,0 50,20 C60,40 50,60 30,70 C10,80 -10,70 -20,50 C-30,30 -20,10 0,0 Z" fill="#FFD700" />
      <path d="M0,0 C-20,-10 -40,0 -50,20 C-60,40 -50,60 -30,70 C-10,80 10,70 20,50 C30,30 20,10 0,0 Z" fill="#FFD700" />
      <path d="M0,0 C0,-20 10,-40 30,-50 C50,-60 70,-50 80,-30 C90,-10 80,10 60,20 C40,30 20,20 10,0 C0,-20 0,-20 0,0 Z" fill="#FFD700" />
      <circle cx="0" cy="0" r="15" fill="#FFD700" />
    </g>
    
    <!-- Red line -->
    <line x1="10" y1="90" x2="290" y2="90" stroke="#FF0000" stroke-width="4" />
    
    <!-- Text "prarambh" -->
    <text x="150" y="120" font-family="Arial" font-size="32" font-weight="bold" fill="#FF0000" text-anchor="middle">prarambh</text>
  </g>
</svg>

